<?xml version="1.0" encoding="UTF-8"?>
<svg width="61px" height="61px" viewBox="0 0 61 61" version="1.1" xmlns="http://www.w3.org/2000/svg" xmlns:xlink="http://www.w3.org/1999/xlink">
    <!-- Generator: Sketch 52.2 (67145) - http://www.bohemiancoding.com/sketch -->
    <title>close</title>
    <desc>Created with Sketch.</desc>
    <g id="Page-1" stroke="none" stroke-width="1" fill="none" fill-rule="evenodd">
        <g id="Full-Screen-with-options" transform="translate(-73.000000, -126.000000)" fill="#FFFFFF" stroke="#FFFFFF" stroke-width="4">
            <g id="Group-2" transform="translate(75.000000, 119.000000)">
                <g id="Close" transform="translate(0.000000, 9.000000)">
                    <path d="M56.3300792,52.3776146 L32.097914,28.1454494 L55.8613587,4.38200473 C56.7575492,3.48581421 56.7575492,2.03171717 55.8613587,1.13560261 C54.9651682,0.23941209 53.5110711,0.23941209 52.6149566,1.13560261 L28.8515119,24.902086 L4.62162573,0.669920837 C3.72839795,-0.223306946 2.28326509,-0.223306946 1.39003731,0.669920837 C0.496809525,1.56314862 0.496809525,3.01124421 1.39003731,3.90150926 L25.6199235,28.1336744 L0.672142891,53.081455 C-0.22404763,53.9776455 -0.22404763,55.4317426 0.672142891,56.3278571 C1.56833341,57.2240476 3.02243045,57.2240476 3.91854501,56.3278571 L28.8663256,31.3800765 L53.0984907,55.6122417 C53.9917185,56.5054695 55.4368514,56.5054695 56.3300792,55.6122417 C57.2233069,54.7190139 57.2233069,53.2709183 56.3300792,52.3806533 L56.3300792,52.3776146 Z" id="close"></path>
                </g>
            </g>
        </g>
    </g>
</svg>