<?xml version="1.0" encoding="UTF-8"?>
<svg width="57px" height="54px" viewBox="0 0 57 54" version="1.1" xmlns="http://www.w3.org/2000/svg" xmlns:xlink="http://www.w3.org/1999/xlink">
    <!-- Generator: Sketch 52.2 (67145) - http://www.bohemiancoding.com/sketch -->
    <title>np_message_1272963_000000</title>
    <desc>Created with Sketch.</desc>
    <g id="Page-1" stroke="none" stroke-width="1" fill="none" fill-rule="evenodd">
        <g id="Share-Modal" transform="translate(-55.000000, -249.000000)" fill="#FFFFFF" fill-rule="nonzero" stroke="#FFFFFF" stroke-width="3">
            <g id="np_message_1272963_000000" transform="translate(57.000000, 251.000000)">
                <path d="M5.2999947e-05,22.6975806 C5.2999947e-05,10.117463 11.9043711,0 26.5000265,0 C41.0956819,0 53,10.117463 53,22.6975806 C53,35.2819087 41.0956819,45.3993717 26.5000265,45.3993717 C24.9120951,45.3993717 23.3407527,45.2760179 21.7942142,45.0375262 C17.8751331,48.8965097 13.044983,50.5165248 7.41797858,49.8566239 C6.36418064,49.7332701 5.87769412,48.5038218 6.57119843,47.7122881 C8.58148642,45.4198982 9.86715913,43.1028766 10.4468196,40.7569599 C3.93789606,36.5073412 0,29.8973847 0,22.6978437 L5.2999947e-05,22.6975806 Z M20.3552126,42.749347 C20.6636882,42.4245071 21.1170869,42.2764794 21.5621804,42.3566643 C23.1791028,42.6444986 24.8312172,42.7925263 26.4998675,42.7925263 C39.7106343,42.7925263 50.3498437,33.7503365 50.3498437,22.6976016 C50.3498437,11.646972 39.7106343,2.60478224 26.4998675,2.60478224 C13.2891007,2.60478224 2.64989135,11.646972 2.64989135,22.6976016 C2.64989135,29.2376628 6.3971466,35.2698244 12.6223614,39.0319648 C13.0840386,39.3115727 13.3262537,39.8378671 13.2351468,40.3641878 C12.8107338,42.771684 11.7879832,45.1133901 10.1793818,47.3916219 C14.1336549,47.3032158 17.4997345,45.7632909 20.3548416,42.7493154 L20.3552126,42.749347 Z" id="text-icon"></path>
            </g>
        </g>
    </g>
</svg>