<?xml version="1.0" encoding="UTF-8"?>
<svg width="68px" height="61px" viewBox="0 0 68 61" version="1.1" xmlns="http://www.w3.org/2000/svg" xmlns:xlink="http://www.w3.org/1999/xlink">
    <!-- Generator: Sketch 52.2 (67145) - http://www.bohemiancoding.com/sketch -->
    <title>download</title>
    <desc>Created with Sketch.</desc>
    <g id="Page-1" stroke="none" stroke-width="1" fill="none" fill-rule="evenodd">
        <g id="Full-Screen-with-options" transform="translate(-803.000000, -1849.000000)" fill="#333333" stroke="#333333" stroke-width="2">
            <g id="download" transform="translate(805.000000, 1851.000000)">
                <path d="M62.1037037,34 C61.0555259,34 60.2074074,34.7481524 60.2074074,35.6727273 L60.2074074,48.6363636 C60.2074074,51.4035564 57.6555615,53.6545455 54.5185185,53.6545455 L9.48148148,53.6545455 C6.34443852,53.6545455 3.79259259,51.4035564 3.79259259,48.6363636 L3.79259259,35.6727273 C3.79259259,34.7481273 2.94444563,34 1.8962963,34 C0.848146963,34 0,34.7481524 0,35.6727273 L0,48.6363636 C0,53.2494109 4.25187556,57 9.48148148,57 L54.5185185,57 C59.7481244,57 64,53.2494109 64,48.6363636 L64,35.6727273 C64,34.7481273 63.151853,34 62.1037037,34 Z" id="Path"></path>
                <path d="M35,45.3139013 C35,46.2458924 34.10547,47 33,47 C31.89453,47 31,46.2458671 31,45.3139013 L31,1.68609865 C31,0.754107623 31.89453,0 33,0 C34.10547,0 35,0.754132915 35,1.68609865 L35,45.3139013 Z" id="Path"></path>
                <path d="M34.1106901,45.5013876 C33.4143763,46.1515033 32.2691271,46.167515 31.5516667,45.539818 C30.834143,44.9089195 30.8129332,43.8712611 31.5092516,43.2212028 L41.890665,33.4986124 C42.5869789,32.8484967 43.732228,32.832485 44.4496884,33.460182 C45.1672121,34.0910805 45.1848839,35.1287389 44.4921035,35.7787972 L34.1106901,45.5013876 Z" id="Path"></path>
                <path d="M29.8893099,45.5013876 C30.5856237,46.1515033 31.7308729,46.167515 32.4483333,45.539818 C33.165857,44.9089195 33.1870668,43.8712611 32.4907484,43.2212028 L22.109335,33.4986124 C21.4130211,32.8484967 20.267772,32.832485 19.5503116,33.460182 C18.8327879,34.0910805 18.8151161,35.1287389 19.5078965,35.7787972 L29.8893099,45.5013876 Z" id="Path"></path>
            </g>
        </g>
    </g>
</svg>