<?xml version="1.0" encoding="UTF-8"?>
<svg width="53px" height="54px" viewBox="0 0 53 54" version="1.1" xmlns="http://www.w3.org/2000/svg" xmlns:xlink="http://www.w3.org/1999/xlink">
    <!-- Generator: Sketch 52.2 (67145) - http://www.bohemiancoding.com/sketch -->
    <title>downloal-all-icon</title>
    <desc>Created with Sketch.</desc>
    <g id="Page-1" stroke="none" stroke-width="1" fill="none" fill-rule="evenodd">
        <g id="Share-Modal" transform="translate(-57.000000, -613.000000)" fill="#FFFFFF">
            <g id="Group-10" transform="translate(57.000000, 613.000000)">
                <g id="downloal-all-icon">
                    <polygon id="Path" stroke="#FFFFFF" points="18 30.5877301 27 42 36 30.5877301 30.0209143 30.5877301 30.0209143 2 24.1071429 2 23.9790729 30.5877301"></polygon>
                    <path d="M17.1784157,30.5656926 C20.0980384,34.4486768 23.0795862,38.3314105 25.9964171,42.2174013 C26.313657,42.5941996 26.7572854,42.5941996 27.0745253,42.2174013 C29.9941479,38.3344171 32.9756958,34.4516834 35.8925267,30.5656926 C36.2097666,30.1888944 35.7661256,29.6261397 35.3224846,29.6261397 L29.4213141,29.6261397 C29.612153,29.8145389 29.8649551,30.0641092 30.055794,30.2525083 L30.055794,1.1263686 C30.055794,0.813184298 29.7385541,0.5 29.4213141,0.5 L23.5846068,0.5 C23.2673669,0.5 22.9501269,0.813184298 22.9501269,1.1263686 C22.9501269,10.8350818 22.8856892,20.5437951 22.8856892,30.2525083 C23.076528,30.0641092 23.3293302,29.8145389 23.520169,29.6261397 L17.6189986,29.6261397 C16.7936671,29.6261397 16.7936671,30.8788769 17.6189986,30.8788769 L23.520169,30.8788769 C23.837409,30.8788769 24.1546489,30.5656926 24.1546489,30.2525083 C24.1546489,20.5437951 24.2190867,10.8350818 24.2190867,1.1263686 L23.5846068,1.75273719 L29.4213141,1.75273719 C29.2304753,1.56433805 28.9776731,1.31476774 28.7868342,1.1263686 L28.7868342,30.2525083 C28.7868342,30.5656926 29.1040742,30.8788769 29.4213141,30.8788769 L35.3224846,30.8788769 C35.1316457,30.5656926 34.9408069,30.2525083 34.7524425,29.939324 C31.8328199,33.8223083 28.851272,37.7050419 25.8697242,41.5910327 L26.9478324,41.5910327 C23.9662845,37.7080485 21.0466619,33.8253148 18.0651141,29.939324 C17.8123119,29.2517592 16.6697659,29.8781548 17.1778574,30.5656926 L17.1784157,30.5656926 Z" id="Path"></path>
                    <polygon id="Path" points="1 48 52 48 52 53 1 53"></polygon>
                    <path d="M52.3815564,52.2611497 L0.618443622,52.2611497 C0.804459095,52.4474604 1.05087177,52.6942641 1.23688724,52.8805748 L1.23688724,47.1194252 C1.05087177,47.3057359 0.804459095,47.5525396 0.618443622,47.7388503 L52.3815564,47.7388503 L51.7631128,47.1194252 L51.7631128,52.8805748 C51.7631128,53.6863231 53,53.6863231 53,52.8805748 L53,47.1194252 C53,46.8097126 52.6907782,46.5 52.3815564,46.5 L0.618443622,46.5 C0.309221811,46.5 0,46.8097126 0,47.1194252 L0,52.8805748 C0,53.1902874 0.309221811,53.5 0.618443622,53.5 L52.3815564,53.5 C53.1860278,53.5 53.1860278,52.2611497 52.3815564,52.2611497 Z" id="Path"></path>
                </g>
            </g>
        </g>
    </g>
</svg>