<?xml version="1.0" encoding="UTF-8"?>
<svg width="60px" height="45px" viewBox="0 0 60 45" version="1.1" xmlns="http://www.w3.org/2000/svg" xmlns:xlink="http://www.w3.org/1999/xlink">
    <!-- Generator: Sketch 52.2 (67145) - http://www.bohemiancoding.com/sketch -->
    <title>np_mail_732849_000000</title>
    <desc>Created with Sketch.</desc>
    <g id="Page-1" stroke="none" stroke-width="1" fill="none" fill-rule="evenodd">
        <g id="Share-Modal" transform="translate(-56.000000, -368.000000)" fill="#FFFFFF" fill-rule="nonzero">
            <g id="np_mail_732849_000000" transform="translate(56.000000, 368.000000)">
                <path d="M55.6291,0.003906 C44.5471,0 15.4531,0 4.3711,0 C1.9531,0 0,1.9609 0,4.3828 L0,40.6208 C0,43.0388 1.9648,45.0036 4.3828,45.0036 L55.6638,45.0036 C58.0583,45.0036 59.9997,43.0622 59.9997,40.6716 L59.9997,4.3826 C59.9997,1.9646 58.0466,0.0037 55.6286,0.0037 L55.6291,0.003906 Z M52.6408,5.003906 L29.9998,21.054906 L7.3588,5.003906 L52.6408,5.003906 Z M4.9998,40.003906 L4.9998,9.226906 L28.6368,26.042906 C29.07039,26.351496 29.53524,26.503846 30.043,26.503846 C30.55081,26.503846 30.94925,26.351506 31.3868,26.042906 L54.9998,9.226906 L54.9998,40.003906 L4.9998,40.003906 Z" id="email-icon"></path>
            </g>
        </g>
    </g>
</svg>