<?xml version="1.0" encoding="UTF-8"?>
<svg width="64px" height="57px" viewBox="0 0 64 57" version="1.1" xmlns="http://www.w3.org/2000/svg" xmlns:xlink="http://www.w3.org/1999/xlink">
    <!-- Generator: Sketch 52.2 (67145) - http://www.bohemiancoding.com/sketch -->
    <title>Shape</title>
    <desc>Created with Sketch.</desc>
    <g id="Page-1" stroke="none" stroke-width="1" fill="none" fill-rule="evenodd">
        <g id="Full-Screen-Image" transform="translate(-66.000000, -1866.000000)" fill="#333333" fill-rule="nonzero">
            <g id="Group" transform="translate(66.000000, 1866.000000)">
                <g id="np_heart_1742986_FFFFFF">
                    <path d="M17.0302353,0.000244532028 C12.6471313,0.000244532028 8.26369917,1.70691507 4.95738299,5.14560595 C-1.65565948,12.0230692 -1.64926174,23.0461655 4.95738299,29.9297421 L30.2046463,56.2422034 C30.6660213,56.726173 31.3100599,57 31.9860871,57 C32.6589237,57 33.3029541,56.726173 33.767528,56.2422034 C42.1912112,47.4830662 50.6173551,38.7141476 59.0402182,29.9550104 C65.6532606,23.0775471 65.6532606,12.04793 59.0402182,5.17087426 C52.4271757,-1.70618147 41.507966,-1.70658902 34.8945135,5.17087426 L31.9981444,8.1510676 L29.1017753,5.14536142 C25.7952951,1.70658902 21.4121911,0 17.028923,0 L17.0302353,0.000244532028 Z M17.0302353,4.78899675 C20.0900747,4.78899675 23.1691073,6.04034864 25.5654688,8.53343418 L30.2304833,13.3986434 C30.6918583,13.882613 31.3358969,14.15644 32.0119241,14.15644 C32.6847607,14.15644 33.3287911,13.882613 33.793365,13.3986434 L38.4327065,8.55894702 C43.2226408,3.57595487 50.6876482,3.57595487 55.4777465,8.55894702 C60.2676809,13.5419392 60.2676809,21.6104365 55.4777465,26.5931841 C47.6535638,34.731536 39.8229833,42.8570093 31.9988826,50.9958502 L8.52001864,26.5679158 C3.73008433,21.5785658 3.73008433,13.5164263 8.52001864,8.53367871 C10.9166262,6.04059317 13.9699859,4.78924128 17.0298252,4.78924128 L17.0302353,4.78899675 Z" id="Shape"></path>
                </g>
            </g>
        </g>
    </g>
</svg>