<?xml version="1.0" encoding="UTF-8"?>
<svg width="64px" height="57px" viewBox="0 0 64 57" version="1.1" xmlns="http://www.w3.org/2000/svg" xmlns:xlink="http://www.w3.org/1999/xlink">
    <!-- Generator: Sketch 52.3 (67297) - http://www.bohemiancoding.com/sketch -->
    <title>favorite-filled-dark</title>
    <desc>Created with Sketch.</desc>
    <g id="Page-1" stroke="none" stroke-width="1" fill="none" fill-rule="evenodd">
        <g id="favorite-empty-dark" fill="#E7394E" fill-rule="nonzero">
            <path d="M17.0302353,0.000244532028 C12.6471313,0.000244532028 8.26369917,1.70691507 4.95738299,5.14560595 C-1.65565948,12.0230692 -1.64926174,23.0461655 4.95738299,29.9297421 L30.2046463,56.2422034 C30.6660213,56.726173 31.3100599,57 31.9860871,57 C32.6589237,57 33.3029541,56.726173 33.767528,56.2422034 C42.1912112,47.4830662 50.6173551,38.7141476 59.0402182,29.9550104 C65.6532606,23.0775471 65.6532606,12.04793 59.0402182,5.17087426 C52.4271757,-1.70618147 41.507966,-1.70658902 34.8945135,5.17087426 L31.9981444,8.1510676 L29.1017753,5.14536142 C25.7952951,1.70658902 21.4121911,0 17.028923,0 L17.0302353,0.000244532028 Z" id="Shape"></path>
        </g>
    </g>
</svg>