<?xml version="1.0" encoding="UTF-8"?>
<svg width="48px" height="48px" viewBox="0 0 48 48" version="1.1" xmlns="http://www.w3.org/2000/svg" xmlns:xlink="http://www.w3.org/1999/xlink">
    <!-- Generator: Sketch 52.2 (67145) - http://www.bohemiancoding.com/sketch -->
    <title>np_link_162420_000000</title>
    <desc>Created with Sketch.</desc>
    <g id="Page-1" stroke="none" stroke-width="1" fill="none" fill-rule="evenodd">
        <g id="Share-Modal" transform="translate(-62.000000, -488.000000)" fill="#FFFFFF" fill-rule="nonzero">
            <g id="np_link_162420_000000" transform="translate(62.000000, 488.000000)">
                <path d="M28.5614032,35.7127205 L19.6526584,44.6231184 C15.1704259,49.1048789 7.88922783,49.1250915 3.37913528,44.6863846 C3.3690117,44.6762614 3.35888813,44.6661396 3.34876456,44.653486 C3.33864098,44.6433634 3.32851741,44.6332409 3.3158631,44.6231184 C-1.12587508,40.1135656 -1.10559554,32.8330696 3.37913528,28.3513091 L13.1988397,18.5326388 C17.6810722,14.0508784 24.9622703,14.0306658 29.4723629,18.4693733 C29.4824871,18.4794952 29.49261,18.4896183 29.5027343,18.5022713 C29.5128572,18.5123938 29.5229814,18.5225163 29.5356357,18.5351693 C30.0747152,19.0817847 30.5479931,19.6714167 30.9554629,20.2888735 L28.2878931,22.9561623 C27.526082,23.7178931 26.3695002,23.8393632 25.4760989,23.3281652 C25.3596762,23.1813905 25.2331331,23.0371423 25.0964632,22.9004869 C23.0160932,20.8582993 19.6626472,20.8684056 17.5975678,22.9333849 L7.78045497,32.7520552 C5.7127191,34.8195733 5.70513857,38.172666 7.75008425,40.2527522 C9.83045434,42.2974663 13.1864271,42.28736 15.2515713,40.2223841 L20.8322035,34.6423397 C23.279549,35.7001336 25.9598178,36.0569641 28.5617544,35.7127665 L28.5614032,35.7127205 Z M44.625004,3.31551382 C40.1149762,-1.12575659 32.8337133,-1.10547918 28.3514808,3.37877997 L19.4401444,12.2891779 C22.0444134,11.9450127 24.7246174,12.3018309 27.172287,13.3621313 L32.7529191,7.78208692 C34.8206549,5.71456882 38.1741009,5.70698909 40.2544062,7.7517194 C42.2993356,9.8318704 42.2892283,13.1874897 40.2240348,15.2524165 L30.4043303,25.0684954 C28.3391213,27.1334869 24.9856754,27.1435932 22.9054349,25.1013934 C22.7712983,24.9647379 22.6447553,24.8204962 22.5257992,24.673715 C21.6349248,24.16253 20.4757513,24.2865267 19.714005,25.045718 L17.0464353,27.7130068 C17.4539115,28.3304765 17.9272024,28.920128 18.4662624,29.466711 L18.4991639,29.499609 C18.5092881,29.5097315 18.519411,29.519854 18.5295352,29.532507 C23.039563,33.9737774 30.3208259,33.9534999 34.8030584,29.4692414 L44.6227628,19.6505711 C49.1049953,15.1688107 49.1252101,7.88837941 44.686035,3.37876183 C44.6759114,3.36863933 44.6657879,3.35851682 44.6531336,3.34839431 C44.6455407,3.3382718 44.6354171,3.3281493 44.6252936,3.31549568 L44.625004,3.31551382 Z" id="link-icon"></path>
            </g>
        </g>
    </g>
</svg>