<?xml version="1.0" encoding="UTF-8"?>
<svg width="100pt" height="100pt" version="1.1" viewBox="0 0 100 100" xmlns="http://www.w3.org/2000/svg">
 <g>
  <path d="m55.164 59.816c0-11.793 9.5625-21.355 21.355-21.355 4.9844 0 9.5625 1.7227 13.195 4.5859 2.4102-8.2344 0.26562-17.07-6.0195-23.32-9.3281-9.2812-24.41-9.2383-33.691 0.089844-9.2773-9.3281-24.363-9.3711-33.691-0.089844-9.3281 9.2773-9.5469 24.234 0.71094 34.496 11.453 11.449 29.773 29.777 32.98 32.988 1.4766-1.4766 6.1445-6.1484 11.875-11.879-4.1289-3.8945-6.7148-9.3945-6.7148-15.516z"/>
  <path d="m88.422 46.48c-3.1641-2.8281-7.3281-4.5625-11.906-4.5625-9.8828 0-17.898 8.0156-17.898 17.898 0 5.1641 2.1992 9.8008 5.6953 13.066 3.1992 2.9844 7.4805 4.8281 12.199 4.8281 9.8867 0 17.898-8.0117 17.898-17.895 0.003906-5.3047-2.3164-10.059-5.9883-13.336zm-10.566 22.41v3.0664h-2.9141v-2.8555c-1.9922-0.058593-3.9258-0.625-5.0586-1.25l0.18359-0.71875 0.71094-2.7656c0.41797 0.23047 0.89453 0.44922 1.4141 0.64453 1.0312 0.38672 2.2383 0.66797 3.5273 0.66797 1.6953 0 2.8867-0.68359 2.8867-1.8438 0-1.0586-0.875-1.7539-2.7891-2.4453-0.13281-0.046875-0.25391-0.09375-0.39453-0.14453-3.1836-1.0703-5.3555-2.5586-5.3555-5.4453 0-2.6484 1.8438-4.6992 5.0273-5.2969v-2.8281h2.9141v2.6172c1.9922 0.058593 3.332 0.50391 4.3438 0.98047l-0.89453 3.3633c-0.74219-0.35547-2.1445-1.0391-4.2852-1.0391-1.9336 0-2.5586 0.86328-2.5586 1.6953 0 0.95312 1.043 1.6055 3.5703 2.5273 0.30859 0.10547 0.57812 0.22266 0.85547 0.33594 2.9258 1.207 4.1133 2.7812 4.1133 5.2578 0 2.6523-1.8438 4.8828-5.2969 5.4766z"/>
 </g>
</svg>
