<svg width="240" height="49" viewBox="0 0 240 49" fill="none" xmlns="http://www.w3.org/2000/svg">
<path fill-rule="evenodd" clip-rule="evenodd" d="M71.7354 27.9448H67.6621V37.768H61V10.232H71.7354C74.6287 10.232 76.8938 11.1022 78.5307 12.8425C80.1677 14.5829 80.9862 16.6648 80.9862 19.0884C80.9862 21.4862 80.1614 23.5617 78.5117 25.3149C76.862 27.0681 74.6033 27.9448 71.7354 27.9448ZM71.4309 16.3039H67.6621V21.8729H71.4309C72.3192 21.8729 73.0234 21.5958 73.5437 21.0414C74.064 20.4871 74.3241 19.8361 74.3241 19.0884C74.3241 18.3407 74.064 17.6897 73.5437 17.1354C73.0234 16.581 72.3192 16.3039 71.4309 16.3039ZM95.4904 23.5359C95.1351 23.175 94.7925 22.9042 94.4626 22.7238C94.1326 22.5433 93.7266 22.453 93.2444 22.453C92.4322 22.453 91.8104 22.7302 91.379 23.2845C90.9475 23.8389 90.7318 24.5156 90.7318 25.3149V37.768H84.4885V16.9613H90.5795V18.663C91.1125 18.1215 91.8041 17.6639 92.6543 17.2901C93.5045 16.9162 94.4245 16.7293 95.4143 16.7293C96.4295 16.7293 97.305 16.8711 98.041 17.1547C98.777 17.4383 99.5003 17.9411 100.211 18.663L95.4904 23.5359ZM102.571 14.8343V10H108.815V14.8343H102.571ZM102.571 37.768V17.7735H108.815V37.768H102.571ZM136.072 37.768V25.3149C136.072 24.2578 135.805 23.5166 135.272 23.0912C134.739 22.6657 134.168 22.453 133.559 22.453C132.95 22.453 132.379 22.6657 131.846 23.0912C131.313 23.5166 131.047 24.2578 131.047 25.3149V37.768H124.803V25.3149C124.803 24.2578 124.537 23.5166 124.004 23.0912C123.471 22.6657 122.9 22.453 122.291 22.453C121.682 22.453 121.111 22.6657 120.578 23.0912C120.045 23.5166 119.778 24.2578 119.778 25.3149V37.768H113.535V16.9613H119.626V18.663C120.21 18.07 120.933 17.5994 121.796 17.2514C122.659 16.9033 123.522 16.7293 124.385 16.7293C126.44 16.7293 128.103 17.4641 129.372 18.9337C130.285 18.1344 131.18 17.5672 132.056 17.232C132.931 16.8969 133.965 16.7293 135.158 16.7293C136.148 16.7293 137.074 16.884 137.937 17.1934C138.8 17.5028 139.581 18.012 140.278 18.721C140.976 19.43 141.49 20.2551 141.82 21.1961C142.15 22.1372 142.315 23.2265 142.315 24.4641V37.768H136.072ZM152.061 29.4144C152.061 30.3168 152.384 31.0838 153.032 31.7155C153.679 32.3471 154.561 32.663 155.677 32.663C156.743 32.663 157.555 32.5341 158.114 32.2762C158.672 32.0184 159.269 31.5672 159.903 30.9227L163.634 34.7127C162.517 35.8471 161.369 36.6786 160.189 37.2072C159.008 37.7357 157.505 38 155.677 38C152.86 38 150.532 37.2459 148.692 35.7376C146.852 34.2293 145.932 31.4383 145.932 27.3646C145.932 24.0387 146.776 21.4346 148.463 19.5525C150.151 17.6703 152.365 16.7293 155.106 16.7293C157.974 16.7293 160.227 17.6639 161.864 19.5331C163.501 21.4024 164.319 23.755 164.319 26.5912V29.4144H152.061ZM157.809 23.5746C157.581 23.0589 157.257 22.6593 156.838 22.3757C156.42 22.0921 155.842 21.9503 155.106 21.9503C154.396 21.9503 153.818 22.0985 153.374 22.395C152.93 22.6915 152.6 23.0783 152.384 23.5552C152.169 24.0322 152.061 24.5801 152.061 25.1989H158.152C158.152 24.8122 158.133 24.5221 158.095 24.3287C158.057 24.1354 157.961 23.884 157.809 23.5746ZM175.054 38C173.075 38 171.419 37.826 170.086 37.4779C168.754 37.1298 167.441 36.2984 166.146 34.9834L170.182 30.884C170.765 31.477 171.438 31.9153 172.199 32.1989C172.961 32.4825 173.95 32.6243 175.169 32.6243C175.778 32.6243 176.374 32.5212 176.958 32.3149C177.542 32.1087 177.833 31.7606 177.833 31.2707C177.833 30.9355 177.726 30.6455 177.51 30.4006C177.294 30.1556 176.907 30.0074 176.349 29.9558L173.189 29.6464C171.311 29.4659 169.852 28.8987 168.811 27.9448C167.771 26.9908 167.25 25.547 167.25 23.6133C167.25 21.4475 168.062 19.7588 169.687 18.547C171.311 17.3352 173.214 16.7293 175.397 16.7293C177.224 16.7293 178.785 16.9098 180.08 17.2707C181.374 17.6317 182.503 18.302 183.468 19.2818L179.623 23.1878C179.166 22.7238 178.563 22.4015 177.814 22.221C177.066 22.0405 176.222 21.9503 175.283 21.9503C174.623 21.9503 174.122 22.0792 173.779 22.337C173.437 22.5948 173.265 22.8656 173.265 23.1492C173.265 23.3297 173.303 23.5488 173.379 23.8066C173.456 24.0645 173.862 24.232 174.598 24.3094L177.757 24.6188C179.813 24.825 181.355 25.5018 182.383 26.6492C183.411 27.7965 183.924 29.2339 183.924 30.9613C183.924 33.2818 183.087 35.035 181.412 36.221C179.737 37.407 177.618 38 175.054 38ZM198.353 37.768V25.1602C198.353 24.1547 198.099 23.4521 197.591 23.0525C197.084 22.6529 196.538 22.453 195.954 22.453C195.396 22.453 194.857 22.6593 194.336 23.0718C193.816 23.4843 193.556 24.1805 193.556 25.1602V37.768H187.313V10.232H193.556V18.663C194.19 18.0184 194.888 17.535 195.65 17.2127C196.411 16.8904 197.211 16.7293 198.048 16.7293C200.18 16.7293 201.804 17.4319 202.921 18.837C204.038 20.2422 204.596 22.0534 204.596 24.2707V37.768H198.353ZM223.821 35.3315C223.11 36.105 222.215 36.7431 221.137 37.2459C220.058 37.7486 218.758 38 217.235 38C215.687 38 214.386 37.7551 213.333 37.2652C212.279 36.7753 211.359 36.0985 210.573 35.2348C209.786 34.3711 209.228 33.3591 208.898 32.1989C208.568 31.0387 208.403 29.4273 208.403 27.3646C208.403 25.2762 208.555 23.6713 208.86 22.5497C209.164 21.4282 209.716 20.4291 210.516 19.5525C211.315 18.6759 212.254 17.9862 213.333 17.4834C214.411 16.9807 215.712 16.7293 217.235 16.7293C218.783 16.7293 220.084 16.9742 221.137 17.4641C222.19 17.954 223.11 18.6308 223.897 19.4945C224.684 20.3582 225.242 21.3831 225.572 22.5691C225.902 23.7551 226.067 25.3536 226.067 27.3646C226.067 29.453 225.915 31.058 225.61 32.1796C225.305 33.3011 224.709 34.3517 223.821 35.3315ZM218.91 23.0331C218.529 22.6464 217.971 22.453 217.235 22.453C216.499 22.453 215.94 22.6464 215.56 23.0331C215.179 23.4199 214.932 23.942 214.817 24.5994C214.703 25.2569 214.646 26.1786 214.646 27.3646C214.646 28.5249 214.703 29.4401 214.817 30.1105C214.932 30.7808 215.179 31.3094 215.56 31.6961C215.94 32.0829 216.499 32.2762 217.235 32.2762C217.971 32.2762 218.529 32.0829 218.91 31.6961C219.291 31.3094 219.538 30.7873 219.652 30.1298C219.766 29.4724 219.823 28.5506 219.823 27.3646C219.823 26.2044 219.766 25.2891 219.652 24.6188C219.538 23.9484 219.291 23.4199 218.91 23.0331ZM236.878 37.768C234.772 37.768 233.186 37.1556 232.12 35.9309C231.054 34.7063 230.521 33.2689 230.521 31.6188V22.6464H228.655V17.7735H230.521V11.8177H236.764V17.7735H240V22.6464H236.764V31.1547C236.764 32.0055 237.183 32.4309 238.02 32.4309H240V37.768H236.878Z" fill="white"/>
<path d="M20.9602 0L0 12.255V36.745L21 49L42 36.745V12.255L20.9602 0ZM34.0877 10.7169V26.0281L31.4602 27.5864V9.18876L34.0877 10.7169ZM13.0877 19.9056L20.9602 15.3112L28.8327 19.9056V29.0944L20.9602 33.6888L13.0877 29.0944V19.9056ZM20.9602 3.06627L28.8327 7.66065V10.6767L18.3327 4.55416L20.9602 3.06627ZM15.7052 6.08227L28.8626 13.7831V16.7991L13.1175 7.62043L15.7052 6.08227ZM2.58768 13.7429L10.4602 9.14854L13.0877 10.6767L2.58768 16.7991V13.7429ZM2.58768 19.8654L15.7052 12.2148L18.3327 13.7429L2.58768 22.9317V19.8654ZM2.58768 35.1767V25.9879L5.20521 24.4598V36.7048L2.58768 35.1767ZM7.8327 38.2429V22.9719L10.4602 21.4337V39.8112L7.8327 38.2429ZM20.9602 45.8935L18.3327 44.3654L13.0877 41.2991V38.2831L23.5877 44.4056L20.9602 45.8935ZM26.2152 42.8272L13.0877 35.1767V32.1606L28.8626 41.3394L26.2152 42.8272ZM39.3327 35.1767L31.4602 39.771L28.8626 38.2831L39.3626 32.1506L39.3327 35.1767ZM39.3327 29.0542L26.2152 36.7048L23.5877 35.1767L39.3327 25.9879V29.0542ZM39.3327 22.9317L36.7152 24.4598V12.255L39.3327 13.7831V22.9317Z" fill="white"/>
</svg>
