<?xml version="1.0" encoding="UTF-8"?>
<svg width="296px" height="49px" viewBox="0 0 296 49" version="1.1" xmlns="http://www.w3.org/2000/svg" xmlns:xlink="http://www.w3.org/1999/xlink">
    <!-- Generator: Sketch 52.5 (67469) - http://www.bohemiancoding.com/sketch -->
    <title>Group 3</title>
    <desc>Created with Sketch.</desc>
    <g id="Redesign-Step-1" stroke="none" stroke-width="1" fill="none" fill-rule="evenodd">
        <g id="Primeshot-Logo-Copy-5" transform="translate(-96.000000, -58.000000)">
            <g id="Group" transform="translate(96.000000, 58.000000)">
                <g id="Group-2">
                    <g id="Group-3">
                        <path d="M74.85,29.3 L69.5,29.3 L69.5,42 L60.75,42 L60.75,6.4 L74.85,6.4 C78.650019,6.4 81.6249892,7.52498875 83.775,9.775 C85.9250107,12.0250113 87,14.716651 87,17.85 C87,20.9500155 85.9166775,23.633322 83.75,25.9 C81.5833225,28.166678 78.6166855,29.3 74.85,29.3 Z M74.45,14.25 L69.5,14.25 L69.5,21.45 L74.45,21.45 C75.6166725,21.45 76.5416632,21.0916703 77.225,20.375 C77.9083367,19.6583298 78.25,18.8166715 78.25,17.85 C78.25,16.8833285 77.9083367,16.0416703 77.225,15.325 C76.5416632,14.6083298 75.6166725,14.25 74.45,14.25 Z M106.05,23.6 C105.583331,23.133331 105.133335,22.7833345 104.7,22.55 C104.266664,22.3166655 103.733336,22.2 103.1,22.2 C102.033328,22.2 101.216669,22.5583298 100.65,23.275 C100.08333,23.9916703 99.8,24.8666615 99.8,25.9 L99.8,42 L91.6,42 L91.6,15.1 L99.6,15.1 L99.6,17.3 C100.300003,16.5999965 101.208328,16.0083358 102.325,15.525 C103.441672,15.0416643 104.649993,14.8 105.95,14.8 C107.28334,14.8 108.433328,14.9833315 109.4,15.35 C110.366671,15.7166685 111.316662,16.366662 112.25,17.3 L106.05,23.6 Z M115.35,12.35 L115.35,6.1 L123.55,6.1 L123.55,12.35 L115.35,12.35 Z M115.35,42 L115.35,16.15 L123.55,16.15 L123.55,42 L115.35,42 Z M159.35,42 L159.35,25.9 C159.35,24.5333265 159.000003,23.5750028 158.3,23.025 C157.599996,22.4749973 156.850004,22.2 156.05,22.2 C155.249996,22.2 154.500003,22.4749973 153.8,23.025 C153.099996,23.5750028 152.75,24.5333265 152.75,25.9 L152.75,42 L144.55,42 L144.55,25.9 C144.55,24.5333265 144.200003,23.5750028 143.5,23.025 C142.799996,22.4749973 142.050004,22.2 141.25,22.2 C140.449996,22.2 139.700003,22.4749973 139,23.025 C138.299996,23.5750028 137.95,24.5333265 137.95,25.9 L137.95,42 L129.75,42 L129.75,15.1 L137.75,15.1 L137.75,17.3 C138.51667,16.5333295 139.466661,15.9250023 140.6,15.475 C141.733339,15.0249978 142.866661,14.8 144,14.8 C146.700013,14.8 148.883325,15.7499905 150.55,17.65 C151.750006,16.6166615 152.924994,15.8833355 154.075,15.45 C155.225006,15.0166645 156.583325,14.8 158.15,14.8 C159.450006,14.8 160.666661,14.999998 161.8,15.4 C162.933339,15.800002 163.958329,16.4583288 164.875,17.375 C165.791671,18.2916713 166.466664,19.3583273 166.9,20.575 C167.333335,21.7916728 167.55,23.199992 167.55,24.8 L167.55,42 L159.35,42 Z M180.35,31.2 C180.35,32.3666725 180.774996,33.3583293 181.625,34.175 C182.475004,34.9916708 183.633326,35.4 185.1,35.4 C186.500007,35.4 187.566663,35.233335 188.3,34.9 C189.033337,34.566665 189.816662,33.9833375 190.65,33.15 L195.55,38.05 C194.083326,39.516674 192.575008,40.5916633 191.025,41.275 C189.474992,41.9583368 187.500012,42.3 185.1,42.3 C181.399981,42.3 178.341679,41.3250098 175.925,39.375 C173.508321,37.4249903 172.3,33.816693 172.3,28.55 C172.3,24.2499785 173.408322,20.8833455 175.625,18.45 C177.841678,16.0166545 180.749982,14.8 184.35,14.8 C188.116685,14.8 191.074989,16.0083213 193.225,18.425 C195.375011,20.8416788 196.45,23.883315 196.45,27.55 L196.45,31.2 L180.35,31.2 Z M187.9,23.65 C187.599998,22.98333 187.175003,22.4666685 186.625,22.1 C186.074997,21.7333315 185.316671,21.55 184.35,21.55 C183.416662,21.55 182.658336,21.7416648 182.075,22.125 C181.491664,22.5083353 181.058335,23.0083303 180.775,23.625 C180.491665,24.2416698 180.35,24.949996 180.35,25.75 L188.35,25.75 C188.35,25.2499975 188.325,24.8750013 188.275,24.625 C188.225,24.3749988 188.100001,24.050002 187.9,23.65 Z M210.55,42.3 C207.949987,42.3 205.775009,42.0750023 204.025,41.625 C202.274991,41.1749978 200.550008,40.1000085 198.85,38.4 L204.15,33.1 C204.91667,33.8666705 205.799995,34.4333315 206.8,34.8 C207.800005,35.1666685 209.099992,35.35 210.7,35.35 C211.500004,35.35 212.283329,35.216668 213.05,34.95 C213.81667,34.683332 214.2,34.2333365 214.2,33.6 C214.2,33.1666645 214.058335,32.7916683 213.775,32.475 C213.491665,32.1583318 212.983337,31.966667 212.25,31.9 L208.1,31.5 C205.633321,31.2666655 203.716673,30.5333395 202.35,29.3 C200.983326,28.0666605 200.3,26.2000125 200.3,23.7 C200.3,20.899986 201.366656,18.7166745 203.5,17.15 C205.633344,15.5833255 208.133319,14.8 211,14.8 C213.400012,14.8 215.449991,15.033331 217.15,15.5 C218.850008,15.966669 220.333327,16.833327 221.6,18.1 L216.55,23.15 C215.949997,22.549997 215.158338,22.1333345 214.175,21.9 C213.191662,21.6666655 212.083339,21.55 210.85,21.55 C209.983329,21.55 209.325002,21.716665 208.875,22.05 C208.424998,22.383335 208.2,22.7333315 208.2,23.1 C208.2,23.3333345 208.249999,23.616665 208.35,23.95 C208.45,24.283335 208.983328,24.4999995 209.95,24.6 L214.1,25 C216.800013,25.266668 218.824993,26.1416593 220.175,27.625 C221.525007,29.1083408 222.2,30.9666555 222.2,33.2 C222.2,36.200015 221.100011,38.466659 218.9,40 C216.699989,41.533341 213.916683,42.3 210.55,42.3 Z M241.15,42 L241.15,25.7 C241.15,24.3999935 240.81667,23.4916693 240.15,22.975 C239.48333,22.4583308 238.76667,22.2 238,22.2 C237.266663,22.2 236.558337,22.466664 235.875,23 C235.191663,23.533336 234.85,24.433327 234.85,25.7 L234.85,42 L226.65,42 L226.65,6.4 L234.85,6.4 L234.85,17.3 C235.683337,16.4666625 236.599995,15.8416688 237.6,15.425 C238.600005,15.0083313 239.649994,14.8 240.75,14.8 C243.550014,14.8 245.683326,15.7083243 247.15,17.525 C248.616674,19.3416758 249.35,21.683319 249.35,24.55 L249.35,42 L241.15,42 Z M274.6,38.85 C273.666662,39.850005 272.491674,40.6749968 271.075,41.325 C269.658326,41.9750033 267.95001,42.3 265.95,42.3 C263.916656,42.3 262.20834,41.9833365 260.825,41.35 C259.44166,40.7166635 258.233338,39.8416723 257.2,38.725 C256.166661,37.6083278 255.433335,36.3000075 255,34.8 C254.566664,33.2999925 254.35,31.21668 254.35,28.55 C254.35,25.8499865 254.549998,23.7750073 254.95,22.325 C255.350002,20.8749928 256.074995,19.583339 257.125,18.45 C258.175005,17.316661 259.408326,16.4250033 260.825,15.775 C262.241674,15.1249968 263.94999,14.8 265.95,14.8 C267.983343,14.8 269.69166,15.1166635 271.075,15.75 C272.45834,16.3833365 273.666661,17.2583278 274.7,18.375 C275.733339,19.4916723 276.466664,20.816659 276.9,22.35 C277.333335,23.883341 277.55,25.949987 277.55,28.55 C277.55,31.2500135 277.350002,33.3249928 276.95,34.775 C276.549998,36.2250073 275.766672,37.583327 274.6,38.85 Z M268.15,22.95 C267.649997,22.4499975 266.916671,22.2 265.95,22.2 C264.983328,22.2 264.250002,22.4499975 263.75,22.95 C263.249997,23.4500025 262.925001,24.1249958 262.775,24.975 C262.624999,25.8250043 262.55,27.016659 262.55,28.55 C262.55,30.0500075 262.624999,31.233329 262.775,32.1 C262.925001,32.966671 263.249997,33.6499975 263.75,34.15 C264.250002,34.6500025 264.983328,34.9 265.95,34.9 C266.916671,34.9 267.649997,34.6500025 268.15,34.15 C268.650002,33.6499975 268.974999,32.9750043 269.125,32.125 C269.275001,31.2749958 269.35,30.083341 269.35,28.55 C269.35,27.0499925 269.275001,25.866671 269.125,25 C268.974999,24.133329 268.650002,23.4500025 268.15,22.95 Z M291.75,42 C288.983319,42 286.900007,41.2083413 285.5,39.625 C284.099993,38.0416588 283.4,36.183344 283.4,34.05 L283.4,22.45 L280.95,22.45 L280.95,16.15 L283.4,16.15 L283.4,8.45 L291.6,8.45 L291.6,16.15 L295.85,16.15 L295.85,22.45 L291.6,22.45 L291.6,33.45 C291.6,34.5500055 292.149994,35.1 293.25,35.1 L295.85,35.1 L295.85,42 L291.75,42 Z" id="Primeshot" fill="#000000"></path>
                        <path d="M20.9601896,0 L0,12.2550267 L0,36.7449733 L21,49 L42,36.7449733 L42,12.2550267 L20.9601896,0 Z M34.0876777,10.716865 L34.0876777,26.0281083 L31.4601896,27.5863767 L31.4601896,9.18875667 L34.0876777,10.716865 Z M13.0876777,19.9056217 L20.9601896,15.3112433 L28.8327014,19.9056217 L28.8327014,29.0943783 L20.9601896,33.6887567 L13.0876777,29.0943783 L13.0876777,19.9056217 Z M20.9601896,3.06627 L28.8327014,7.66064834 L28.8327014,10.6766516 L18.3327014,4.55416496 L20.9601896,3.06627 Z M15.7052133,6.08227329 L28.8625592,13.783135 L28.8625592,16.7991383 L13.1175355,7.62043496 L15.7052133,6.08227329 Z M2.58767773,13.7429216 L10.4601896,9.14854329 L13.0876777,10.6766516 L2.58767773,16.7991383 L2.58767773,13.7429216 Z M2.58767773,19.8654083 L15.7052133,12.2148133 L18.3327014,13.7429216 L2.58767773,22.9316783 L2.58767773,19.8654083 Z M2.58767773,35.1766516 L2.58767773,25.987895 L5.20521327,24.4597866 L5.20521327,36.70476 L2.58767773,35.1766516 Z M7.83270142,38.2429216 L7.83270142,22.9718917 L10.4601896,21.43373 L10.4601896,39.8112433 L7.83270142,38.2429216 Z M20.9601896,45.8935166 L18.3327014,44.3654083 L13.0876777,41.2991383 L13.0876777,38.283135 L23.5876777,44.4056217 L20.9601896,45.8935166 Z M26.2151659,42.8272466 L13.0876777,35.1766516 L13.0876777,32.1606483 L28.8625592,41.3393517 L26.2151659,42.8272466 Z M39.3327014,35.1766516 L31.4601896,39.77103 L28.8625592,38.283135 L39.3625592,32.150595 L39.3327014,35.1766516 Z M39.3327014,29.054165 L26.2151659,36.70476 L23.5876777,35.1766516 L39.3327014,25.987895 L39.3327014,29.054165 Z M39.3327014,22.9316783 L36.7151659,24.4597866 L36.7151659,12.2550267 L39.3327014,13.783135 L39.3327014,22.9316783 Z" id="Shape" fill="#231F20" fill-rule="nonzero"></path>
                    </g>
                </g>
            </g>
        </g>
    </g>
</svg>