<?xml version="1.0" encoding="UTF-8"?>
<svg width="42px" height="49px" viewBox="0 0 42 49" version="1.1" xmlns="http://www.w3.org/2000/svg" xmlns:xlink="http://www.w3.org/1999/xlink">
    <!-- Generator: Sketch 52.3 (67297) - http://www.bohemiancoding.com/sketch -->
    <title>Shape</title>
    <desc>Created with Sketch.</desc>
    <g id="Page-1" stroke="none" stroke-width="1" fill="none" fill-rule="evenodd">
        <g id="Artboard" fill-rule="nonzero" stroke="#000000" stroke-width="0.05">
            <g id="primeshot-icon">
                <path d="M20.9601896,0 L0,12.2550267 L0,36.7449733 L21,49 L42,36.7449733 L42,12.2550267 L20.9601896,0 Z M34.0876777,10.716865 L34.0876777,26.0281083 L31.4601896,27.5863767 L31.4601896,9.18875667 L34.0876777,10.716865 Z M13.0876777,19.9056217 L20.9601896,15.3112433 L28.8327014,19.9056217 L28.8327014,29.0943783 L20.9601896,33.6887567 L13.0876777,29.0943783 L13.0876777,19.9056217 Z M20.9601896,3.06627 L28.8327014,7.66064834 L28.8327014,10.6766516 L18.3327014,4.55416496 L20.9601896,3.06627 Z M15.7052133,6.08227329 L28.8625592,13.783135 L28.8625592,16.7991383 L13.1175355,7.62043496 L15.7052133,6.08227329 Z M2.58767773,13.7429216 L10.4601896,9.14854329 L13.0876777,10.6766516 L2.58767773,16.7991383 L2.58767773,13.7429216 Z M2.58767773,19.8654083 L15.7052133,12.2148133 L18.3327014,13.7429216 L2.58767773,22.9316783 L2.58767773,19.8654083 Z M2.58767773,35.1766516 L2.58767773,25.987895 L5.20521327,24.4597866 L5.20521327,36.70476 L2.58767773,35.1766516 Z M7.83270142,38.2429216 L7.83270142,22.9718917 L10.4601896,21.43373 L10.4601896,39.8112433 L7.83270142,38.2429216 Z M20.9601896,45.8935166 L18.3327014,44.3654083 L13.0876777,41.2991383 L13.0876777,38.283135 L23.5876777,44.4056217 L20.9601896,45.8935166 Z M26.2151659,42.8272466 L13.0876777,35.1766516 L13.0876777,32.1606483 L28.8625592,41.3393517 L26.2151659,42.8272466 Z M39.3327014,35.1766516 L31.4601896,39.77103 L28.8625592,38.283135 L39.3625592,32.150595 L39.3327014,35.1766516 Z M39.3327014,29.054165 L26.2151659,36.70476 L23.5876777,35.1766516 L39.3327014,25.987895 L39.3327014,29.054165 Z M39.3327014,22.9316783 L36.7151659,24.4597866 L36.7151659,12.2550267 L39.3327014,13.783135 L39.3327014,22.9316783 Z" id="Shape"></path>
            </g>
        </g>
    </g>
</svg>