<?xml version="1.0" encoding="UTF-8"?>
<svg width="61px" height="79px" viewBox="0 0 61 79" version="1.1" xmlns="http://www.w3.org/2000/svg" xmlns:xlink="http://www.w3.org/1999/xlink">
    <!-- Generator: Sketch 52.2 (67145) - http://www.bohemiancoding.com/sketch -->
    <title>more-options</title>
    <desc>Created with Sketch.</desc>
    <g id="Page-1" stroke="none" stroke-width="1" fill="none" fill-rule="evenodd">
        <g id="Full-Screen-with-options" transform="translate(-813.000000, -116.000000)" fill="#333333" fill-rule="nonzero" stroke="#333333" stroke-width="3">
            <g id="Group-2" transform="translate(75.000000, 119.000000)">
                <g id="More-Options" transform="translate(740.000000, 0.000000)">
                    <path d="M50.3679783,22 L37.2989647,22 L37.2989647,25 L50.3679783,25 C52.2764564,25 53.8865588,26.6016 53.8865588,28.5 L53.8865588,67.699 C53.8865588,69.5974 52.2764564,71.199 50.3679783,71.199 L6.53450678,71.202906 C4.62602868,71.202906 3.01592621,69.601306 3.01592621,67.702906 L3.01592621,28.499906 C3.01592621,26.601506 4.62602868,24.999906 6.53450678,24.999906 L18.5982116,24.999906 L18.5982116,21.999906 L6.53450678,21.999906 C2.91378684,21.999906 0,24.898306 0,28.499906 L0,67.698906 C0,71.300506 2.91378684,74.198906 6.53450678,74.198906 L50.4654932,74.198906 C54.0862132,74.198906 57,71.300506 57,67.698906 L57,28.499906 C56.9018246,24.902206 53.9840738,21.999906 50.3672746,21.999906 L50.3679783,22 Z M26.9432794,5.703 L26.9432794,48.101 L29.9592056,48.101 L29.9592056,5.703 L36.5958518,12.3046 L38.7086086,10.203 L28.4514436,0 L18.0957583,10.203 L20.2085151,12.3046 L26.9432794,5.703 Z" id="more-options"></path>
                </g>
            </g>
        </g>
    </g>
</svg>